<?xml version="1.0" encoding="utf-8"?>
<!-- Generator: Adobe Illustrator 21.1.0, SVG Export Plug-In . SVG Version: 6.00 Build 0)  -->
<svg version="1.1" id="noimage" xmlns="http://www.w3.org/2000/svg" xmlns:xlink="http://www.w3.org/1999/xlink" x="0px" y="0px"
	 width="300px" height="200px" viewBox="0 0 300 200" style="enable-background:new 0 0 300 200;" xml:space="preserve">
<style type="text/css">
	.st0{fill:#FFFFFF;}
	.st1{fill:#E5E5E5;}
	.st2{fill:#D3DBE0;}
</style>
<g id="base">
	<rect x="0.5" y="0.5" class="st0" width="299" height="199"/>
	<path class="st1" d="M299,1v198H1V1H299 M300,0H0v200h300V0L300,0z"/>
</g>
<g id="logo">
	<path class="st2" d="M216.1,99h-7v-3.1c-0.8,1.1-1.9,2.1-3.1,2.8c-1.2,0.6-2.6,0.9-3.9,0.8c-1.8,0.1-3.6-0.6-4.8-1.8
		c-1.2-1.3-1.8-3.1-1.8-5.7V79.5h7.6v10.8c-0.1,0.9,0.1,1.8,0.7,2.6c0.5,0.5,1.2,0.8,1.9,0.8c0.9,0,1.7-0.4,2.2-1
		c0.6-0.7,0.9-2,0.9-3.7v-9.4h7.5L216.1,99z"/>
	<path class="st2" d="M219.3,93.6l7.4-0.7c0.2,0.8,0.7,1.4,1.3,1.9c0.6,0.4,1.4,0.6,2.2,0.6c0.8,0.1,1.6-0.2,2.3-0.6
		c0.4-0.3,0.6-0.7,0.6-1.2c0-0.6-0.3-1.1-0.9-1.3c-1.1-0.4-2.1-0.6-3.2-0.8c-1.8-0.3-3.7-0.7-5.4-1.3c-1-0.4-1.9-1.1-2.5-2
		c-0.7-0.9-1.1-2-1.1-3.1c0-1.2,0.4-2.4,1.1-3.3c0.8-0.9,1.9-1.7,3.1-2.1c1.7-0.5,3.5-0.8,5.3-0.7c1.8-0.1,3.5,0.1,5.2,0.5
		c1.1,0.3,2,0.9,2.8,1.6c0.8,0.9,1.4,1.9,1.8,3l-7.1,0.7c-0.1-0.6-0.4-1.1-0.9-1.4c-0.6-0.4-1.4-0.6-2.1-0.6
		c-0.6-0.1-1.3,0.1-1.8,0.4c-0.4,0.3-0.6,0.6-0.6,1.1c0,0.5,0.3,0.9,0.8,1.1c1,0.4,2.1,0.6,3.2,0.6c1.9,0.1,3.8,0.6,5.6,1.2
		c1.1,0.4,2.1,1.2,2.8,2.1c0.6,0.9,1,2,0.9,3.1c0,1.2-0.4,2.3-1,3.3c-0.8,1.1-1.9,2.1-3.2,2.6c-2,0.7-4,1-6,0.9
		c-3.6,0-6.1-0.5-7.6-1.5C220.7,96.9,219.7,95.3,219.3,93.6z"/>
	<path class="st2" d="M108.4,88l7.3,2.2c-0.4,1.9-1.2,3.6-2.3,5.2c-1,1.4-2.4,2.5-4,3.1c-1.9,0.8-4,1.1-6,1
		c-2.5,0.1-4.9-0.3-7.2-1.3c-2-1-3.7-2.6-4.8-4.5c-1.3-2.1-2-4.9-2-8.2c0-4.5,1.2-7.9,3.6-10.3c2.4-2.4,5.8-3.6,10.1-3.6
		c3.4,0,6.1,0.7,8.1,2.1c2,1.4,3.4,3.5,4.3,6.4l-7.4,1.6c-0.2-0.6-0.4-1.3-0.8-1.8c-0.4-0.6-1-1.1-1.7-1.4c-0.7-0.4-1.5-0.5-2.3-0.5
		c-1.8-0.1-3.4,0.8-4.3,2.3c-0.8,1.1-1.1,2.9-1.1,5.3c0,3,0.4,5,1.4,6.2c0.9,1.1,2.4,1.8,3.8,1.6c1.3,0.1,2.6-0.4,3.6-1.3
		C107.5,90.7,108.2,89.4,108.4,88z"/>
	<path class="st2" d="M139.9,99h-7v-3.1c-0.8,1.1-1.9,2.1-3.1,2.8c-1.2,0.6-2.6,0.9-3.9,0.8c-1.8,0.1-3.6-0.6-4.8-1.8
		c-1.2-1.3-1.8-3.1-1.8-5.7V79.5h7.6v10.8c-0.1,0.9,0.1,1.8,0.7,2.6c0.5,0.5,1.2,0.8,1.9,0.8c0.9,0,1.7-0.4,2.2-1
		c0.6-0.7,0.9-2,0.9-3.7v-9.4h7.5L139.9,99L139.9,99z"/>
	<path class="st2" d="M144.6,79.5h7.1v3.2c0.4-1.1,1.2-2.1,2.1-2.9c0.8-0.6,1.7-0.8,2.6-0.8c1.3,0.1,2.5,0.4,3.7,1l-2.3,5.4
		c-0.7-0.3-1.4-0.5-2.1-0.6c-0.9,0-1.8,0.4-2.3,1.2c-0.8,1.1-1.1,3.3-1.2,6.4V99h-7.6V79.5z"/>
	<path class="st2" d="M161.5,72h7.5v5.1h-7.5V72z M161.5,79.5h7.5V99h-7.5V79.5z"/>
	<path class="st2" d="M60,111.2c0-3.4,0.9-6,2.8-7.9c1.9-1.9,4.5-2.8,7.9-2.8c3.5,0,6.1,0.9,8,2.8c1.9,1.8,2.8,4.5,2.8,7.8
		c0.1,2.1-0.3,4.1-1.2,6c-0.8,1.5-2,2.8-3.5,3.7c-1.8,0.9-3.8,1.3-5.7,1.3c-2,0.1-4-0.3-5.8-1.1c-1.6-0.8-2.9-2-3.7-3.5
		C60.4,115.3,59.9,113.3,60,111.2z M66.4,111.2c0,2.1,0.4,3.6,1.2,4.5c0.8,0.9,2,1.4,3.1,1.4c1.2,0.1,2.4-0.4,3.2-1.3
		c0.8-0.9,1.1-2.5,1.1-4.8c0-2-0.4-3.4-1.2-4.3c-0.8-0.9-2-1.4-3.1-1.3c-1.2-0.1-2.4,0.4-3.1,1.4C66.8,107.6,66.4,109.1,66.4,111.2z
		"/>
	<path class="st2" d="M84.6,100.8h5.9v10.7l4.3-5h7.1l-5.4,5.2l5.7,9.8h-6.4l-3-6l-2.1,2.1v3.9h-5.9V100.8z"/>
	<path class="st2" d="M104.1,100.8h5.7v3.9h-5.7V100.8z M104.1,106.5h5.7v15h-5.7V106.5z"/>
	<path class="st2" d="M113.5,106.5h5.4v2.5c0.6-0.9,1.5-1.6,2.5-2.1c0.9-0.4,2-0.7,3-0.6c1.4-0.1,2.8,0.4,3.7,1.4
		c0.9,0.9,1.4,2.4,1.4,4.4v9.5h-5.9v-8.3c0.1-0.7-0.1-1.4-0.5-2c-0.4-0.4-0.9-0.6-1.4-0.6c-0.6,0-1.3,0.3-1.7,0.8
		c-0.4,0.5-0.6,1.4-0.6,2.8v7.2h-5.8V106.5z"/>
	<path class="st2" d="M138.1,111.4l-5.5-0.6c0.1-0.8,0.4-1.6,0.9-2.3c0.4-0.6,1-1.1,1.7-1.4c0.7-0.3,1.4-0.6,2.2-0.7
		c1-0.2,2-0.3,3-0.3c1.4,0,2.8,0.1,4.2,0.3c0.9,0.1,1.9,0.6,2.6,1.2c0.5,0.5,0.9,1.1,1.1,1.8c0.3,0.7,0.4,1.4,0.4,2.2v6.7
		c0,0.6,0.1,1.1,0.1,1.6c0.1,0.5,0.3,1.1,0.6,1.5H144c-0.2-0.3-0.3-0.6-0.4-0.9c-0.1-0.3-0.2-0.6-0.2-0.9c-0.6,0.6-1.4,1.2-2.3,1.6
		c-1.1,0.4-2.3,0.6-3.5,0.6c-1.8,0-3.1-0.4-4.1-1.3c-0.9-0.8-1.4-1.9-1.4-3.1c-0.1-1,0.3-2,1-2.8c0.7-0.8,1.9-1.3,3.7-1.7
		c2.1-0.4,3.6-0.8,4.2-0.9c0.7-0.2,1.4-0.4,2-0.7c0.1-0.5-0.1-1.1-0.4-1.4c-0.4-0.3-1-0.5-1.5-0.4c-0.8-0.1-1.4,0.1-2.1,0.4
		C138.5,110.4,138.2,110.8,138.1,111.4z M143,114.4c-0.8,0.3-1.6,0.5-2.5,0.8c-0.8,0.1-1.6,0.4-2.2,0.9c-0.3,0.3-0.5,0.6-0.5,1.1
		c0,0.4,0.2,0.8,0.5,1.1c0.4,0.3,0.9,0.4,1.4,0.4c0.6,0,1.3-0.2,1.8-0.4c0.5-0.3,0.9-0.6,1.2-1.1c0.3-0.6,0.4-1.1,0.4-1.8L143,114.4
		L143,114.4z"/>
	<path class="st2" d="M150.5,106.5h5.5l2.4,9.4l3-9.4h5.2l3.1,9.5l2.5-9.4h5.5l-5.5,15h-5.1l-3-9l-3,9H156L150.5,106.5z"/>
	<path class="st2" d="M184.7,111.4l-5.5-0.6c0.1-0.8,0.4-1.6,0.9-2.3c0.4-0.6,1-1.1,1.7-1.4c0.7-0.3,1.4-0.6,2.2-0.7
		c1-0.2,2-0.3,3-0.3c1.4,0,2.8,0.1,4.2,0.3c0.9,0.1,1.9,0.6,2.6,1.2c0.5,0.5,0.9,1.1,1.1,1.8c0.3,0.7,0.4,1.4,0.4,2.2v6.7
		c0,0.6,0.1,1.1,0.1,1.6c0.1,0.5,0.3,1.1,0.6,1.5h-5.4c-0.2-0.3-0.3-0.6-0.4-0.9c-0.1-0.3-0.2-0.6-0.2-0.9c-0.6,0.6-1.4,1.2-2.2,1.6
		c-1.1,0.4-2.3,0.6-3.5,0.6c-1.8,0-3.1-0.4-4.1-1.3c-0.9-0.8-1.4-1.9-1.4-3.1c-0.1-1,0.3-2,1-2.8c0.7-0.8,1.9-1.3,3.7-1.6
		c2.1-0.4,3.6-0.8,4.2-0.9c0.7-0.2,1.3-0.4,2-0.7c0.1-0.5-0.1-1.1-0.4-1.4c-0.4-0.3-1-0.5-1.5-0.4c-0.8-0.1-1.4,0.1-2.1,0.4
		C185.2,110.4,184.8,110.9,184.7,111.4z M189.7,114.4c-0.8,0.3-1.6,0.5-2.5,0.8c-0.8,0.1-1.6,0.4-2.2,0.9c-0.6,0.6-0.6,1.4-0.1,2.1
		c0.1,0.1,0.1,0.1,0.1,0.1c0.4,0.3,0.9,0.4,1.4,0.4c0.6,0,1.3-0.2,1.8-0.4c0.5-0.3,0.9-0.6,1.2-1.1c0.3-0.6,0.4-1.1,0.4-1.8
		L189.7,114.4z"/>
	<path class="st2" d="M225.5,126l-5.2-18.3c-0.6-1.3-1.6-2.2-3-2.6l-21-5.8l-5.6-13.7c-0.6-1.5-1.6-2.9-2.8-4
		c-4.2-3.7-10.6-3.3-14.4,0.9c-3.7,4.2-3.3,10.6,0.9,14.4c1.2,1.1,2.6,1.8,4.2,2.2L193,103l8.4,20.1c0.6,1.3,1.6,2.2,3,2.6l18.8,2.8
		C224.5,128.7,225.9,127.2,225.5,126z M187.5,94.8L187.5,94.8c-3.1,3.5-8.4,3.8-11.8,0.8c-3.5-3.1-3.8-8.4-0.8-11.8
		c3.1-3.5,8.4-3.8,11.8-0.8C190.2,86.1,190.6,91.4,187.5,94.8z M198.3,106.4c-1.1,0-2.1-0.9-2.1-2.1s0.9-2.1,2.1-2.1l0,0
		c1.1,0,2.1,0.9,2.1,2.1C200.4,105.5,199.5,106.5,198.3,106.4z"/>
</g>
</svg>
