<?xml version="1.0" encoding="utf-8"?>
<!-- Generator: Adobe Illustrator 21.1.0, SVG Export Plug-In . SVG Version: 6.00 Build 0)  -->
<svg version="1.1" id="レイヤー_1" xmlns="http://www.w3.org/2000/svg" xmlns:xlink="http://www.w3.org/1999/xlink" x="0px"
	 y="0px" width="219.7px" height="338.5px" viewBox="0 0 219.7 338.5" style="enable-background:new 0 0 219.7 338.5;"
	 xml:space="preserve">
<style type="text/css">
	.st0{fill:#EDEAEA;}
</style>
<g>
	<g>
		<g>
			<path class="st0" d="M5.7,7.4l6.2-1.9c0,0-0.3-1.7-1.2-3.2C9.9,0.8,8.4-0.5,6.1,0.2c0,0-0.8,0.2-1.3,1.3C4.3,2.5,4.2,4.3,5.7,7.4
				z"/>
			<path class="st0" d="M15.7,26.1c2.4-1.4,2.9-3.6,2.7-5.5c-0.1-1.9-0.8-3.5-0.8-3.5c-0.5-1.7-1.9-4.3-3.1-6.5
				c-1.3-2.2-2.3-3.9-2.3-3.9L6,8.5c0,0,0.5,3.6,0.5,6.2c0,0,0,1,0.2,2.5c0.2,1.5,0.6,3.4,1.3,5C9.4,25.6,12.3,27.5,15.7,26.1z"/>
		</g>
		<g>
			<path class="st0" d="M7.4,37l-6.5,0.2c0,0-0.3-1.8,0.1-3.6c0.4-1.8,1.4-3.5,3.8-3.5c0,0,0.9,0,1.6,0.9C7.1,31.9,7.8,33.6,7.4,37z
				"/>
			<path class="st0" d="M6.1,58.9c-2.8-0.1-4.2-2.1-5-4c-0.4-1-0.6-1.9-0.7-2.6C0.2,51.5,0.2,51,0.2,51c-0.3-1.9-0.2-5.1,0.2-7.8
				c0.2-1.3,0.3-2.5,0.5-3.4C1,39,1.1,38.5,1.1,38.5l6.5-0.3c0,0,0.8,3.6,1.8,6c0,0,0.4,1,0.8,2.4c0.4,1.4,0.9,3.3,1,5.2
				C11.5,55.4,9.8,58.6,6.1,58.9z"/>
		</g>
	</g>
	<g>
		<g>
			<path class="st0" d="M18.9,64.7l5.6-3.2c0,0-0.2-0.4-0.5-0.9c-0.3-0.6-0.7-1.3-1.3-1.9c-1.2-1.3-2.9-2.3-5-1.1c0,0-0.7,0.4-1,1.5
				C16.5,60.2,16.8,62,18.9,64.7z"/>
			<path class="st0" d="M32.6,80.9c2-1.8,2.1-4.1,1.5-5.9c-0.3-0.9-0.6-1.7-1-2.3c-0.3-0.6-0.6-0.9-0.6-0.9
				c-0.8-1.6-2.7-3.8-4.4-5.7c-1.6-1.9-3.1-3.4-3.1-3.4l-5.6,3.2c0,0,1.2,3.5,1.8,5.9c0,0,0.2,1,0.7,2.4c0.5,1.4,1.2,3.2,2.3,4.7
				c1,1.5,2.4,2.6,3.8,3C29.5,82.2,31.1,82,32.6,80.9z"/>
		</g>
		<g>
			<path class="st0" d="M26.8,93.3l-6.3,1.6c0,0-0.2-0.4-0.4-1.1c-0.2-0.7-0.3-1.5-0.3-2.5c0-1.8,0.6-3.8,3-4.2c0,0,0.8-0.2,1.7,0.5
				c0.5,0.3,0.9,0.9,1.3,1.8c0.2,0.5,0.4,1,0.5,1.6C26.5,91.7,26.7,92.5,26.8,93.3z"/>
			<path class="st0" d="M30.5,115c-2.7,0.5-4.6-1.1-5.9-2.8c-0.6-0.9-1.1-1.7-1.3-2.4c-0.3-0.7-0.4-1.1-0.4-1.1
				c-0.8-1.9-1.4-5-1.6-7.7c-0.3-2.7-0.4-4.9-0.4-4.9l6.3-1.7c0,0,0.4,0.8,1,2c0.6,1.1,1.3,2.5,2.1,3.5c0,0,0.6,0.9,1.4,2.2
				c0.8,1.3,1.6,3.1,2.2,4.8C34.9,110.4,34,113.8,30.5,115z"/>
		</g>
	</g>
	<g>
		<g>
			<path class="st0" d="M44.4,117.6l4.7-4.5c0,0-1-1.4-2.4-2.3c-1.4-0.9-3.4-1.5-5.1,0.2c0,0-0.6,0.6-0.6,1.7
				C41,113.8,41.8,115.5,44.4,117.6z"/>
			<path class="st0" d="M61.8,129.4c0.7-1.2,0.9-2.3,0.8-3.3c-0.1-1-0.5-1.9-1-2.7c-0.9-1.6-2.3-2.6-2.3-2.6
				c-0.6-0.6-1.5-1.4-2.5-2.1c-1-0.8-2.1-1.5-3.1-2.2c-2.1-1.4-3.9-2.4-3.9-2.4l-4.6,4.5c0,0,2.1,3,3.2,5.3c0,0,0.1,0.2,0.3,0.6
				c0.2,0.4,0.6,0.9,1,1.5c0.9,1.2,2.1,2.7,3.4,3.9c1.4,1.2,3,1.8,4.5,1.7C59.2,131.5,60.7,130.8,61.8,129.4z"/>
		</g>
		<g>
			<path class="st0" d="M59.9,142.9l-5.6,3.4c0,0-1.2-1.4-1.8-3.2c-0.6-1.8-0.5-3.8,1.7-4.9c0,0,0.8-0.4,1.8,0
				c0.5,0.2,1.1,0.6,1.8,1.3C58.5,140.3,59.2,141.3,59.9,142.9z"/>
			<path class="st0" d="M70.3,162.5c-2.4,1.4-4.8,0.5-6.5-0.8c-0.9-0.6-1.6-1.3-2.1-1.9c-0.5-0.6-0.7-1-0.7-1
				c-1.3-1.5-2.9-4.4-4-6.9c-1.1-2.5-1.8-4.6-1.8-4.6l5.5-3.4c0,0,0.6,0.7,1.5,1.6c0.9,0.9,2.1,1.9,3.1,2.7c0,0,0.9,0.6,2,1.6
				c0.6,0.5,1.2,1.1,1.8,1.8c0.6,0.7,1.3,1.3,1.8,2.1C72.9,156.6,73.2,160.2,70.3,162.5z"/>
		</g>
	</g>
	<g>
		<g>
			<path class="st0" d="M84.3,160.3l2.9-5.8c0,0-1.4-0.9-3-1.3c-1.7-0.4-3.6-0.3-4.8,1.9c0,0-0.4,0.8,0,1.8
				C79.8,157.9,81.1,159.2,84.3,160.3z"/>
			<path class="st0" d="M105,166c0.7-2.7-0.7-4.7-2.3-6c-1.6-1.3-3.3-2-3.3-2c-0.4-0.2-0.9-0.5-1.5-0.7c-0.6-0.2-1.1-0.4-1.7-0.6
				c-1.2-0.3-2.5-0.7-3.7-0.9c-1.2-0.3-2.3-0.5-3.1-0.6c-0.8-0.1-1.3-0.3-1.3-0.3c-1,1.9-1.9,3.9-2.8,5.8c0,0,3,2,4.9,3.8
				c0,0,0.8,0.7,2,1.6c1.2,0.9,2.9,1.9,4.6,2.6C100.1,170.1,103.6,169.5,105,166z"/>
		</g>
		<g>
			<path class="st0" d="M106.5,179.8l-4.7,4.5c0,0-1.3-1.1-2.2-2.6c-0.9-1.5-1.4-3.4,0.4-5.1c0,0,0.6-0.6,1.8-0.5
				C102.9,176.2,104.6,177,106.5,179.8z"/>
			<path class="st0" d="M118.4,197.5c-2.3,1.5-4.6,0.9-6.2-0.1c-1.7-1-2.7-2.4-2.7-2.4c-1.3-1.3-2.9-3.8-4.3-5.9
				c-1.4-2.1-2.4-4-2.4-4l4.7-4.5c0,0,3,2.2,5.2,3.4c0,0,3.7,2.1,6,4.9c1.2,1.4,1.8,3,1.9,4.5C120.5,194.8,119.8,196.3,118.4,197.5z
				"/>
		</g>
	</g>
	<g>
		<g>
			<path class="st0" d="M132.2,195.4l3.1-5.7c0,0-5.9-4.3-8,0.2c0,0-0.4,0.8,0,1.8C127.8,192.8,129,194.2,132.2,195.4z"/>
			<path class="st0" d="M152.3,204.2c1.1-2.5,0.1-4.7-1.3-6.3c-1.3-1.6-3-2.5-3-2.5c-1.6-1.2-4.5-2.4-7-3.4c-2.5-1-4.6-1.6-4.6-1.6
				l-3.2,5.6c0,0,0.2,0.1,0.5,0.4c0.3,0.3,0.7,0.6,1.1,1.1c0.9,0.9,2,2,2.8,2.9c0,0,0.7,0.8,1.8,1.8c1.1,1,2.6,2.3,4.1,3.2
				C146.7,207.4,150.3,207.3,152.3,204.2z"/>
		</g>
		<g>
			<path class="st0" d="M151.4,218l-5.4,3.6c0,0-1.1-1.3-1.7-3c-0.6-1.6-0.8-3.6,1.3-4.9c0,0,0.7-0.5,1.8-0.2
				C148.5,213.8,149.9,214.9,151.4,218z"/>
			<path class="st0" d="M159.7,237.5c-2.6,1-4.6,0-6-1.3c-1.4-1.3-2.2-2.8-2.2-2.8c-1.1-1.4-2.2-4.2-3.1-6.5c-1-2.3-1.6-4.3-1.6-4.3
				l5.4-3.6c0,0,0.6,0.7,1.5,1.5c0.4,0.4,1,0.9,1.5,1.4c0.5,0.5,1,1,1.5,1.4c0,0,3.2,2.7,5,5.8C163.4,232.3,163,235.8,159.7,237.5z"
				/>
		</g>
	</g>
	<g>
		<g>
			<path class="st0" d="M173.7,238.2l4.2-4.9c0,0-1.2-1.4-2.8-2.2c-1.6-0.8-3.6-1.2-5.1,0.8c0,0-0.5,0.7-0.3,1.8
				C169.9,234.7,170.8,236.3,173.7,238.2z"/>
			<path class="st0" d="M191.5,251.1c1.7-2.2,1.1-4.6,0.1-6.5c-0.5-0.9-1.1-1.7-1.6-2.3c-0.5-0.5-0.9-0.8-0.9-0.8
				c-1.3-1.5-3.9-3.4-6.1-4.9c-2.3-1.4-4.2-2.5-4.2-2.5l-4.3,4.9c0,0,2.4,2.9,3.5,5.2c0,0,0.5,0.9,1.3,2.2c0.8,1.3,2,2.8,3.3,4.1
				C185.4,253,188.9,253.7,191.5,251.1z"/>
		</g>
		<g>
			<path class="st0" d="M187.5,264.4l-6.1,2.2c0,0-3.2-6,1.4-7.8c0,0,0.8-0.3,1.8,0.2C185.6,259.7,186.8,261.1,187.5,264.4z"/>
			<path class="st0" d="M190.8,285.2c-2.7,0.3-4.4-1.2-5.4-2.7c-1.1-1.6-1.4-3.2-1.4-3.2c-0.3-0.8-0.6-2-0.8-3.2
				c-0.3-1.2-0.5-2.5-0.6-3.8c-0.2-1.2-0.3-2.4-0.4-3.2c-0.1-0.8-0.1-1.3-0.1-1.3l6.1-2.2c0,0,1.8,3.2,3.3,5.2c0,0,0.7,0.8,1.4,2.1
				c0.7,1.3,1.6,3,2.1,4.8C195.6,281.1,194.4,284.4,190.8,285.2z"/>
		</g>
	</g>
	<g>
		<g>
			<path class="st0" d="M204,289.5l5.4-3.6c0,0-0.8-1.6-2.2-2.9c-1.3-1.3-3.2-2.1-5.1-0.6c0,0-0.7,0.5-0.8,1.7
				C201.2,285.2,201.7,286.9,204,289.5z"/>
			<path class="st0" d="M217.4,307.1c2.2-1.6,2.5-4.2,2-6.3c-0.4-2.1-1.4-3.8-1.4-3.8c-0.8-1.8-2.8-4.5-4.6-6.5
				c-1.8-2-3.4-3.6-3.4-3.6l-5.5,3.5c0,0,0.4,0.9,0.8,2c0.2,0.6,0.4,1.3,0.7,1.9c0.2,0.7,0.4,1.4,0.5,2c0,0,0.9,4.1,2.7,7.3
				C211.1,307.1,214.1,308.9,217.4,307.1z"/>
		</g>
		<g>
			<path class="st0" d="M209.5,318.6c-2.2,0-4.3,0.1-6.5,0.2c0,0-0.2-1.6,0.1-3.3c0.3-1.7,1.2-3.4,3.7-3.5c0,0,0.8-0.1,1.6,0.8
				C209.2,313.5,210,315.2,209.5,318.6z"/>
			<path class="st0" d="M205.1,338.4c-2.6-0.6-3.5-2.4-3.9-4.1c-0.2-0.8-0.2-1.7-0.2-2.3c0-0.6,0.1-1,0.1-1c0-1.7,0.6-4.4,1.1-6.8
				c0.5-2.3,1-4.4,1-4.4c2.2-0.1,4.3-0.1,6.5-0.2c0,0,0.2,0.9,0.4,2.1c0.3,1.2,0.6,2.7,1,3.9c0,0,0.3,1,0.6,2.5
				c0.3,1.5,0.4,3.4,0.2,5.1c-0.2,1.8-1,3.3-2.2,4.2c-0.6,0.5-1.3,0.7-2,0.9c-0.4,0.1-0.8,0.1-1.2,0.1
				C206,338.5,205.5,338.5,205.1,338.4z"/>
		</g>
	</g>
</g>
</svg>
