<?xml version="1.0" encoding="utf-8"?>
<!-- Generator: Adobe Illustrator 21.1.0, SVG Export Plug-In . SVG Version: 6.00 Build 0)  -->
<svg version="1.1" id="レイヤー_1" xmlns="http://www.w3.org/2000/svg" xmlns:xlink="http://www.w3.org/1999/xlink" x="0px"
	 y="0px" width="219.9px" height="295.5px" viewBox="0 0 219.9 295.5" style="enable-background:new 0 0 219.9 295.5;"
	 xml:space="preserve">
<style type="text/css">
	.st0{fill:#ECE9E9;}
</style>
<g>
	<g>
		<g>
			<path class="st0" d="M212.7,2.9l3.9,4.6c0,0,1.3-0.9,2.3-2.1c1-1.3,1.6-3,0.1-4.7c0,0-0.5-0.6-1.5-0.7
				C216.4,0,214.8,0.5,212.7,2.9z"/>
			<path class="st0" d="M200.3,18.1c2,1.6,4.1,1.2,5.7,0.4c1.6-0.8,2.7-1.9,2.7-1.9c1.3-1,3-3.1,4.5-5c1.4-1.8,2.5-3.4,2.5-3.4
				l-3.9-4.6c0,0-2.9,1.7-5.1,2.6c0,0-0.9,0.4-2.1,1.1c-1.2,0.7-2.7,1.7-3.9,2.9C198.4,12.5,197.8,15.7,200.3,18.1z"/>
		</g>
		<g>
			<path class="st0" d="M188,14.9l-2.5-5.5c0,0,1.4-0.9,3.1-1.2c1.7-0.3,3.5-0.1,4.3,2c0,0,0.3,0.7-0.2,1.7
				C192.3,12.8,191.1,14,188,14.9z"/>
			<path class="st0" d="M168.8,21.5c-0.9-2.4,0.3-4.4,1.7-5.7c0.7-0.7,1.4-1.2,2-1.5c0.6-0.3,1-0.5,1-0.5c1.5-1,4.3-2,6.7-2.6
				c1.2-0.3,2.3-0.6,3.1-0.8c0.8-0.2,1.3-0.3,1.3-0.3l2.5,5.5c0,0-2.8,2-4.5,3.7c0,0-0.7,0.7-1.8,1.6c-1.1,0.9-2.5,1.9-4.1,2.7
				C173.6,24.9,170.4,24.6,168.8,21.5z"/>
		</g>
	</g>
	<g>
		<g>
			<path class="st0" d="M168.3,34.6l4.7,3.7c0,0,0.3-0.3,0.6-0.8c0.4-0.5,0.8-1.1,1.2-1.8c0.7-1.5,0.9-3.3-0.9-4.7
				c0,0-0.6-0.5-1.6-0.3C171.3,31,169.9,31.8,168.3,34.6z"/>
			<path class="st0" d="M159.3,52c2.3,1.1,4.3,0.3,5.6-0.8c0.7-0.5,1.2-1.2,1.6-1.6c0.4-0.5,0.6-0.8,0.6-0.8
				c1.1-1.3,2.3-3.7,3.3-5.8c1-2.1,1.8-3.9,1.8-3.9l-4.7-3.7c0,0-2.5,2.3-4.4,3.6c0,0-0.8,0.6-1.8,1.5c-1,0.9-2.3,2.2-3.2,3.6
				c-0.9,1.4-1.3,2.9-1.2,4.3C157.1,49.8,157.9,51.1,159.3,52z"/>
		</g>
		<g>
			<path class="st0" d="M146.6,51.5l-3.6-4.8c0,0,0.3-0.3,0.8-0.7c0.5-0.4,1.2-0.8,2-1.2c1.6-0.7,3.4-0.9,4.7,1.1
				c0,0,0.4,0.7,0.2,1.7c-0.1,0.5-0.4,1.1-1.1,1.8c-0.3,0.3-0.7,0.7-1.2,1C147.9,50.7,147.3,51.1,146.6,51.5z"/>
			<path class="st0" d="M129.4,62.4c-1.4-2.1-0.7-4.4,0.3-6c0.5-0.8,1.1-1.5,1.6-2c0.5-0.5,0.8-0.7,0.8-0.7c1.3-1.3,3.8-3,6-4.1
				c2.2-1.2,4.1-2,4.1-2l3.7,4.8c0,0-0.6,0.6-1.3,1.5c-0.7,0.9-1.6,2-2.2,3.1c0,0-0.5,0.8-1.4,1.9c-0.8,1.1-2.1,2.4-3.3,3.6
				C134.9,64.5,131.6,65,129.4,62.4z"/>
		</g>
	</g>
	<g>
		<g>
			<path class="st0" d="M132.1,75.2l5.5,2.4c0,0,0.8-1.3,1.1-2.9c0.3-1.6,0.1-3.4-2-4.3c0,0-0.7-0.3-1.7,0.1
				C134.1,71,133,72.2,132.1,75.2z"/>
			<path class="st0" d="M128.2,94.3c1.3,0.2,2.3,0,3.1-0.5c0.8-0.5,1.5-1.1,2-1.8c1-1.4,1.5-2.9,1.5-2.9c0.3-0.7,0.6-1.8,0.9-2.9
				c0.3-1.1,0.5-2.3,0.8-3.4c0.4-2.3,0.7-4.2,0.7-4.2l-5.5-2.4c0,0-1.8,2.9-3.4,4.6c0,0-0.2,0.2-0.4,0.5c-0.3,0.3-0.6,0.8-0.9,1.4
				c-0.7,1.2-1.6,2.7-2.1,4.3c-0.5,1.6-0.4,3.2,0.1,4.5C125.5,92.8,126.6,93.8,128.2,94.3z"/>
		</g>
		<g>
			<path class="st0" d="M115.9,97.4l-4.9-3.6c0,0,0.8-1.5,2.1-2.6c1.3-1.1,3.1-1.8,4.8-0.3c0,0,0.6,0.5,0.6,1.5c0,0.5-0.1,1.2-0.5,2
				C117.7,95.3,117,96.3,115.9,97.4z"/>
			<path class="st0" d="M102.9,113.3c-2-1.6-2.1-3.9-1.6-5.9c0.2-1,0.6-1.8,0.9-2.5c0.3-0.6,0.6-1,0.6-1c0.8-1.7,2.8-4,4.4-5.9
				c1.8-1.8,3.3-3.2,3.3-3.2l4.9,3.5c0,0-0.4,0.8-0.8,1.9c-0.5,1.1-0.9,2.5-1.2,3.6c0,0-0.2,1-0.7,2.3c-0.2,0.7-0.5,1.4-0.9,2.2
				c-0.4,0.8-0.7,1.6-1.1,2.3C108.8,113.5,105.8,115,102.9,113.3z"/>
		</g>
	</g>
	<g>
		<g>
			<path class="st0" d="M109.7,124.5l6,0.4c0,0,0.3-1.5,0.1-3.1c-0.3-1.6-1.1-3.2-3.4-3.4c0,0-0.8-0.1-1.5,0.7
				C110.2,119.8,109.5,121.4,109.7,124.5z"/>
			<path class="st0" d="M112.2,144.3c2.5-0.3,3.7-2.3,4.3-4.1c0.6-1.8,0.5-3.5,0.5-3.5c0-0.4,0.1-1,0-1.5c0-0.6-0.1-1.1-0.1-1.6
				c-0.1-1.1-0.3-2.3-0.5-3.4c-0.2-1.1-0.4-2.1-0.6-2.9c-0.2-0.8-0.2-1.2-0.2-1.2c-2-0.1-4-0.3-6-0.4c0,0-0.7,3.3-1.5,5.5
				c0,0-0.3,0.9-0.7,2.2c-0.3,1.4-0.6,3.1-0.6,4.8C106.9,141.6,108.7,144.3,112.2,144.3z"/>
		</g>
		<g>
			<path class="st0" d="M100.9,150.5l-5.5-2.4c0,0,0.5-1.5,1.5-2.8c1-1.3,2.4-2.4,4.5-1.4c0,0,0.7,0.3,1,1.3
				C102.7,146.1,102.6,147.8,100.9,150.5z"/>
			<path class="st0" d="M90,166.9c-2.1-1.5-2.4-3.6-2.1-5.4c0.3-1.8,1.1-3.2,1.1-3.2c0.6-1.6,2.2-3.9,3.5-5.8
				c1.3-1.9,2.5-3.5,2.5-3.5l5.5,2.4c0,0-0.8,3.3-1,5.7c0,0-0.5,3.9-2,6.9c-0.8,1.5-1.9,2.6-3.2,3.2C93,167.8,91.5,167.8,90,166.9z"
				/>
		</g>
	</g>
	<g>
		<g>
			<path class="st0" d="M96.7,178.1l6,0.7c0,0,1.6-6.5-3-6.8c0,0-0.8-0.1-1.6,0.7C97.3,173.3,96.6,174.8,96.7,178.1z"/>
			<path class="st0" d="M96.3,198.3c2.6,0.1,4.1-1.6,5-3.3c0.9-1.7,1.1-3.5,1.1-3.5c0.4-1.8,0.5-4.7,0.4-7.2c0-2.5-0.3-4.5-0.3-4.5
				l-5.9-0.7c0,0-0.1,0.2-0.2,0.6c-0.1,0.3-0.3,0.8-0.5,1.4c-0.4,1.1-1,2.4-1.5,3.5c0,0-0.4,0.9-0.9,2.2c-0.5,1.3-1,3-1.3,4.7
				C91.5,194.8,92.9,197.8,96.3,198.3z"/>
		</g>
		<g>
			<path class="st0" d="M84.1,202.5l-5-3.3c0,0,0.7-1.4,1.9-2.5c1.2-1.1,2.8-1.9,4.7-0.6c0,0,0.7,0.4,0.8,1.5
				C86.7,198.5,86.3,200.2,84.1,202.5z"/>
			<path class="st0" d="M70.4,216.6c-1.8-1.8-1.6-3.9-1-5.6c0.6-1.7,1.6-2.9,1.6-2.9c0.8-1.4,2.8-3.4,4.5-5c1.6-1.6,3.1-2.9,3.1-2.9
				l5,3.3c0,0-0.3,0.8-0.8,1.8c-0.2,0.5-0.4,1.1-0.7,1.7c-0.2,0.6-0.5,1.2-0.6,1.8c0,0-1.2,3.7-3.2,6.4
				C76.2,217.9,73.1,218.8,70.4,216.6z"/>
		</g>
	</g>
	<g>
		<g>
			<path class="st0" d="M74.8,228.8l5.7,1.9c0,0,0.7-1.5,0.9-3.2c0.1-1.7-0.3-3.5-2.5-4.1c0,0-0.8-0.2-1.6,0.4
				C76.4,224.3,75.4,225.6,74.8,228.8z"/>
			<path class="st0" d="M70.1,248.6c2.5,0.6,4.4-0.7,5.6-2.2c0.6-0.8,1.1-1.5,1.4-2.2c0.3-0.6,0.4-1,0.4-1c0.8-1.7,1.5-4.5,2-7
				c0.4-2.5,0.6-4.5,0.6-4.5l-5.7-1.9c0,0-1.6,3.1-3.2,4.9c0,0-0.6,0.8-1.4,1.9c-0.8,1.2-1.6,2.7-2.3,4.3
				C66.2,244,66.9,247.3,70.1,248.6z"/>
		</g>
		<g>
			<path class="st0" d="M57.2,249.9l-4.1-4.4c0,0,4-4.9,7.1-1.5c0,0,0.5,0.6,0.4,1.6C60.6,246.6,59.8,248.1,57.2,249.9z"/>
			<path class="st0" d="M40.6,260.1c-1.3-2.2-0.6-4.2,0.4-5.6c1-1.5,2.2-2.4,2.2-2.4c0.6-0.6,1.5-1.2,2.5-1.8c1-0.7,2-1.3,3-1.9
				c1-0.6,1.9-1.1,2.6-1.5c0.7-0.4,1.1-0.6,1.1-0.6l4.1,4.4c0,0-2.1,2.7-3.3,4.7c0,0-0.5,0.9-1.3,1.9c-0.8,1.1-2,2.4-3.4,3.4
				C45.8,262.8,42.6,262.9,40.6,260.1z"/>
		</g>
	</g>
	<g>
		<g>
			<path class="st0" d="M41.6,273l5,3.3c0,0,1.1-1.3,1.7-2.9c0.6-1.6,0.7-3.5-1.3-4.6c0,0-0.7-0.4-1.7-0.1
				C44.3,269.1,43,270.1,41.6,273z"/>
			<path class="st0" d="M31.3,290.7c2.2,1.3,4.5,0.6,6.1-0.5c1.6-1.1,2.7-2.6,2.7-2.6c1.3-1.4,2.8-4,3.9-6.2
				c1.1-2.3,1.9-4.2,1.9-4.2l-5-3.4c0,0-0.6,0.6-1.5,1.4c-0.4,0.4-0.9,0.8-1.4,1.3c-0.5,0.4-1,0.8-1.5,1.1c0,0-3.2,2.2-5.3,4.9
				C29.1,285.3,28.6,288.5,31.3,290.7z"/>
		</g>
		<g>
			<path class="st0" d="M18.6,288c-0.8-1.8-1.6-3.7-2.5-5.5c0,0,1.3-0.8,2.9-1.1c1.5-0.3,3.4-0.1,4.3,1.9c0,0,0.3,0.7-0.1,1.7
				C22.9,286,21.7,287.2,18.6,288z"/>
			<path class="st0" d="M0.1,291.3c-0.4-2.5,0.8-3.9,2.1-4.8c0.7-0.4,1.3-0.8,1.9-1c0.5-0.2,0.9-0.3,0.9-0.3c1.4-0.6,4-1.1,6.2-1.5
				c2.1-0.4,4.1-0.7,4.1-0.7c0.8,1.8,1.7,3.6,2.5,5.5c0,0-0.7,0.5-1.6,1.1c-0.9,0.7-2.1,1.5-3,2.2c0,0-0.7,0.6-1.9,1.3
				c-1.2,0.7-2.7,1.6-4.3,2c-1.6,0.4-3.2,0.3-4.4-0.4c-0.6-0.3-1.1-0.8-1.5-1.4c-0.2-0.3-0.3-0.6-0.5-1
				C0.3,292.1,0.2,291.7,0.1,291.3z"/>
		</g>
	</g>
</g>
</svg>
