<?xml version="1.0" encoding="utf-8"?>
<!-- Generator: Adobe Illustrator 21.1.0, SVG Export Plug-In . SVG Version: 6.00 Build 0)  -->
<svg version="1.1" id="レイヤー_1" xmlns="http://www.w3.org/2000/svg" xmlns:xlink="http://www.w3.org/1999/xlink" x="0px"
	 y="0px" width="164px" height="372.2px" viewBox="0 0 164 372.2" style="enable-background:new 0 0 164 372.2;"
	 xml:space="preserve">
<style type="text/css">
	.st0{fill:#EDEAEA;}
</style>
<g>
	<g>
		<g>
			<path class="st0" d="M149.6,7l-6.4-0.7c0,0,0-1.7,0.5-3.3c0.6-1.6,1.7-3.2,4.1-3c0,0,0.9,0.1,1.5,1C150,1.9,150.5,3.7,149.6,7z"
				/>
			<path class="st0" d="M143.6,27.3c-2.6-0.9-3.5-3-3.8-4.8c-0.3-1.9,0.1-3.6,0.1-3.6c0.1-1.8,0.9-4.6,1.7-7
				c0.8-2.4,1.5-4.3,1.5-4.3l6.4,0.6c0,0,0.2,3.7,0.7,6.1c0,0,0.2,1,0.3,2.5c0.1,1.5,0.1,3.4-0.2,5.2
				C149.7,25.6,147.3,28,143.6,27.3z"/>
		</g>
		<g>
			<path class="st0" d="M154,36.3l6.4-1.1c0,0-0.1-1.8-0.8-3.5c-0.7-1.7-2-3.2-4.5-2.6c0,0-0.8,0.2-1.4,1.2
				C153.2,31.2,152.9,33,154,36.3z"/>
			<path class="st0" d="M159.8,57.5c2.7-0.7,3.7-2.9,4.1-5c0.2-1,0.2-2,0.2-2.7c0-0.7-0.1-1.2-0.1-1.2c-0.1-2-0.9-5-1.7-7.6
				c-0.4-1.3-0.8-2.4-1.1-3.2c-0.3-0.8-0.5-1.3-0.5-1.3l-6.4,1.1c0,0-0.1,3.7-0.6,6.2c0,0-0.2,1-0.3,2.5c-0.1,1.5-0.2,3.4,0.1,5.3
				C153.8,55.2,156.1,57.9,159.8,57.5z"/>
		</g>
	</g>
	<g>
		<g>
			<path class="st0" d="M148.3,65.8l-6.2-2c0,0,0.1-0.4,0.3-1c0.2-0.6,0.5-1.4,0.9-2.2c0.9-1.5,2.3-2.8,4.7-2.1c0,0,0.8,0.3,1.3,1.3
				C149.7,60.9,149.9,62.8,148.3,65.8z"/>
			<path class="st0" d="M138.3,84.4c-2.4-1.4-2.9-3.6-2.7-5.5c0.1-0.9,0.3-1.8,0.5-2.4c0.2-0.6,0.4-1,0.4-1c0.4-1.7,1.9-4.3,3.1-6.5
				c1.2-2.2,2.3-3.9,2.3-3.9l6.2,2c0,0-0.5,3.6-0.5,6.2c0,0,0,1-0.2,2.5c-0.2,1.5-0.6,3.4-1.3,5c-0.7,1.7-1.8,3-3.1,3.7
				C141.6,85.1,140,85.2,138.3,84.4z"/>
		</g>
		<g>
			<path class="st0" d="M146.5,95.4l6.5,0.3c0,0,0.1-0.4,0.1-1.1c0-0.7,0-1.6-0.2-2.5c-0.3-1.8-1.3-3.6-3.8-3.5c0,0-0.9,0-1.6,0.9
				c-0.4,0.4-0.7,1.1-0.9,2c-0.1,0.5-0.2,1-0.2,1.7C146.4,93.8,146.4,94.6,146.5,95.4z"/>
			<path class="st0" d="M147.2,117.4c2.8,0,4.3-2,5.2-3.9c0.4-1,0.7-1.9,0.8-2.6c0.1-0.7,0.1-1.2,0.1-1.2c0.4-2,0.3-5.2,0.1-7.8
				c-0.3-2.7-0.6-4.9-0.6-4.9l-6.5-0.4c0,0-0.2,0.9-0.6,2.1c-0.3,1.2-0.8,2.7-1.4,3.9c0,0-0.4,1-0.9,2.4c-0.5,1.4-0.9,3.3-1.2,5.1
				C141.9,113.8,143.5,117,147.2,117.4z"/>
		</g>
	</g>
	<g>
		<g>
			<path class="st0" d="M134.1,122.8l-5.5-3.5c0,0,0.7-1.5,1.9-2.8c1.2-1.2,3-2.1,5.1-0.8c0,0,0.7,0.4,0.9,1.5
				C136.7,118.4,136.3,120.2,134.1,122.8z"/>
			<path class="st0" d="M119.5,137.8c-1-1-1.4-2-1.5-3.1c-0.1-1,0.1-2,0.4-2.9c0.6-1.8,1.7-3.1,1.7-3.1c0.5-0.8,1.2-1.6,2.1-2.6
				c0.8-0.9,1.7-1.9,2.6-2.8c1.8-1.7,3.3-3.1,3.3-3.1l5.5,3.4c0,0-1.5,3.4-2.1,5.8c0,0-0.1,0.3-0.2,0.7c-0.1,0.4-0.4,1-0.7,1.7
				c-0.6,1.4-1.5,3.1-2.6,4.5c-1.1,1.4-2.6,2.3-4,2.6C122.4,139.4,120.9,139,119.5,137.8z"/>
		</g>
		<g>
			<path class="st0" d="M124.2,150.7l6.1,2.2c0,0,0.9-1.6,1.1-3.5c0.2-1.9-0.3-3.8-2.6-4.5c0,0-0.8-0.2-1.8,0.4
				c-0.5,0.3-1,0.8-1.5,1.7C125,147.8,124.5,149,124.2,150.7z"/>
			<path class="st0" d="M117.9,172c2.6,0.9,4.8-0.5,6.2-2.1c0.7-0.8,1.3-1.6,1.7-2.3c0.3-0.7,0.5-1.1,0.5-1.1c1-1.8,1.9-4.9,2.6-7.5
				c0.6-2.7,0.8-4.9,0.8-4.9l-6.1-2.3c0,0-0.5,0.8-1.1,1.9c-0.7,1.1-1.7,2.3-2.5,3.3c0,0-0.7,0.8-1.6,2c-0.4,0.6-0.9,1.3-1.4,2.1
				c-0.5,0.8-1,1.6-1.3,2.4C114.1,166.8,114.6,170.4,117.9,172z"/>
		</g>
	</g>
	<g>
		<g>
			<path class="st0" d="M103.7,172.7l-4-5.1c0,0,1.2-1.2,2.7-1.9c1.6-0.7,3.5-1,5.1,0.9c0,0,0.5,0.7,0.3,1.8
				C107.6,169.4,106.7,171,103.7,172.7z"/>
			<path class="st0" d="M84.6,182.5c-1.2-2.5-0.3-4.7,1-6.3c1.3-1.6,2.9-2.6,2.9-2.6c0.4-0.3,0.8-0.6,1.3-1c0.5-0.3,1-0.6,1.5-0.9
				c1.1-0.6,2.3-1.1,3.4-1.6c1.1-0.5,2.2-0.9,2.9-1.2c0.8-0.3,1.2-0.5,1.2-0.5c1.3,1.7,2.7,3.4,4,5.1c0,0-2.6,2.6-4,4.7
				c0,0-0.6,0.9-1.6,2c-1,1.1-2.4,2.5-3.9,3.5C90.3,185.5,86.7,185.6,84.6,182.5z"/>
		</g>
		<g>
			<path class="st0" d="M86,196.3l5.5,3.4c0,0,1.1-1.3,1.6-3c0.5-1.7,0.6-3.6-1.5-4.9c0,0-0.7-0.5-1.8-0.1
				C88.7,192,87.3,193.2,86,196.3z"/>
			<path class="st0" d="M77.9,216c2.6,1,4.6-0.1,6-1.4c1.4-1.3,2.2-2.9,2.2-2.9c1.1-1.5,2.1-4.3,3.1-6.6c0.9-2.4,1.5-4.4,1.5-4.4
				l-5.5-3.4c0,0-2.5,2.7-4.4,4.4c0,0-3.2,2.8-4.9,6c-0.9,1.6-1.2,3.3-0.9,4.7C75.4,213.8,76.3,215.2,77.9,216z"/>
		</g>
	</g>
	<g>
		<g>
			<path class="st0" d="M64,216.8l-4.2-4.9c0,0,4.9-5.4,7.9-1.4c0,0,0.5,0.7,0.3,1.8C67.8,213.3,66.9,214.9,64,216.8z"/>
			<path class="st0" d="M46.1,229.5c-1.6-2.2-1-4.6,0-6.5c1-1.8,2.4-3,2.4-3c1.3-1.5,3.9-3.3,6.1-4.7c2.2-1.5,4.2-2.5,4.2-2.5
				l4.3,4.9c0,0-0.1,0.2-0.4,0.5c-0.2,0.3-0.5,0.8-0.9,1.3c-0.7,1-1.6,2.3-2.2,3.5c0,0-0.5,0.9-1.4,2.2c-0.8,1.2-2.1,2.7-3.4,4
				C52.2,231.5,48.7,232.2,46.1,229.5z"/>
		</g>
		<g>
			<path class="st0" d="M49.8,242.9l6,2.4c0,0,0.8-1.5,1.1-3.2c0.3-1.7,0-3.7-2.3-4.6c0,0-0.8-0.3-1.8,0.2
				C51.8,238.1,50.6,239.5,49.8,242.9z"/>
			<path class="st0" d="M45.6,263.6c2.7,0.5,4.5-1,5.6-2.5c1.1-1.5,1.6-3.2,1.6-3.2c0.8-1.6,1.3-4.6,1.7-7c0.5-2.5,0.7-4.5,0.7-4.5
				l-6-2.4c0,0-0.5,0.8-1.2,1.8c-0.3,0.5-0.7,1.1-1.2,1.6c-0.4,0.6-0.8,1.1-1.2,1.6c0,0-2.6,3.3-3.7,6.7
				C40.9,259.2,42,262.6,45.6,263.6z"/>
		</g>
	</g>
	<g>
		<g>
			<path class="st0" d="M32.1,267.1l-5.1-4c0,0,0.9-1.6,2.3-2.8c1.4-1.1,3.3-1.9,5.2-0.3c0,0,0.7,0.5,0.7,1.7
				C35.1,262.9,34.5,264.7,32.1,267.1z"/>
			<path class="st0" d="M17.3,283.4c-2.1-1.8-2-4.3-1.4-6.3c0.3-1,0.7-1.9,1.1-2.5c0.4-0.6,0.7-1,0.7-1c1-1.7,3.1-4.1,5-6
				c2-1.9,3.6-3.3,3.6-3.3l5.2,3.9c0,0-1.7,3.3-2.4,5.8c0,0-0.3,1-0.9,2.4c-0.6,1.4-1.4,3.1-2.4,4.7C23.6,284,20.4,285.4,17.3,283.4
				z"/>
		</g>
		<g>
			<path class="st0" d="M23.8,295.6l6.4,1c0,0,1.9-6.5-3-7.3c0,0-0.8-0.1-1.7,0.6C24.8,290.6,23.9,292.2,23.8,295.6z"/>
			<path class="st0" d="M24.9,316.6c2.8-0.2,4.1-2,4.7-3.8c0.7-1.7,0.7-3.4,0.7-3.4c0.2-0.9,0.2-2,0.1-3.3c0-1.2-0.1-2.6-0.2-3.8
				c-0.1-1.2-0.2-2.4-0.3-3.2c-0.1-0.8-0.1-1.3-0.1-1.3l-6.4-1c0,0-1.1,3.5-2.2,5.8c0,0-0.5,0.9-0.9,2.4c-0.5,1.4-0.9,3.3-1,5.1
				C19.3,313.6,21.2,316.5,24.9,316.6z"/>
		</g>
	</g>
	<g>
		<g>
			<path class="st0" d="M12.8,323.5l-6-2.4c0,0,0.5-1.8,1.5-3.3c1-1.5,2.7-2.7,4.9-1.6c0,0,0.8,0.4,1.1,1.5
				C14.6,318.7,14.5,320.5,12.8,323.5z"/>
			<path class="st0" d="M3.2,343.5c-2.5-1.1-3.3-3.6-3.2-5.7c0-2.1,0.6-4,0.6-4c0.5-2,1.8-4.9,3.1-7.3c1.4-2.4,2.6-4.2,2.6-4.2
				l6.1,2.4c0,0-0.2,0.9-0.4,2.2c-0.1,0.6-0.2,1.3-0.3,2c-0.1,0.7-0.1,1.4-0.1,2.1c0,0,0,4.2-1.1,7.7C9.5,342.2,6.8,344.6,3.2,343.5
				z"/>
		</g>
		<g>
			<path class="st0" d="M13.3,353.2c2.1-0.4,4.3-0.8,6.4-1.1c0,0-0.1-1.7-0.7-3.2c-0.7-1.6-1.9-3.1-4.3-2.7c0,0-0.8,0.1-1.4,1.1
				C12.6,348.1,12.2,349.9,13.3,353.2z"/>
			<path class="st0" d="M21.7,371.7c2.4-1.1,3-3,3-4.8c0-0.8-0.1-1.7-0.3-2.3c-0.1-0.6-0.3-1-0.3-1c-0.3-1.6-1.5-4.2-2.4-6.4
				c-1-2.1-1.9-4.1-1.9-4.1c-2.1,0.4-4.3,0.7-6.4,1.1c0,0,0,0.9,0,2.1c0,1.2-0.1,2.8-0.2,4c0,0-0.1,1,0,2.5c0,1.5,0.3,3.4,0.9,5.1
				c0.6,1.7,1.7,3,3,3.7c0.7,0.3,1.4,0.5,2.2,0.5c0.4,0,0.8-0.1,1.2-0.2C20.9,371.9,21.3,371.8,21.7,371.7z"/>
		</g>
	</g>
</g>
</svg>
