<?xml version="1.0" encoding="utf-8"?>
<!-- Generator: Adobe Illustrator 21.1.0, SVG Export Plug-In . SVG Version: 6.00 Build 0)  -->
<svg version="1.1" id="レイヤー_1" xmlns="http://www.w3.org/2000/svg" xmlns:xlink="http://www.w3.org/1999/xlink" x="0px"
	 y="0px" width="212.1px" height="344.2px" viewBox="0 0 212.1 344.2" style="enable-background:new 0 0 212.1 344.2;"
	 xml:space="preserve">
<style type="text/css">
	.st0{fill:#EDEAEA;}
</style>
<g>
	<g>
		<g>
			<path class="st0" d="M205.2,7.3L199,5.6c0,0,0.3-1.7,1.1-3.2c0.8-1.5,2.2-2.9,4.6-2.2c0,0,0.8,0.2,1.3,1.2
				C206.4,2.4,206.6,4.2,205.2,7.3z"/>
			<path class="st0" d="M195.7,26.3c-2.4-1.3-3-3.5-2.9-5.4c0.1-1.9,0.7-3.5,0.7-3.5c0.4-1.8,1.7-4.4,2.9-6.6c1.2-2.2,2.2-4,2.2-4
				l6.2,1.8c0,0-0.4,3.6-0.3,6.2c0,0,0,1-0.1,2.5c-0.2,1.5-0.5,3.4-1.1,5.1C202.1,25.7,199.2,27.7,195.7,26.3z"/>
		</g>
		<g>
			<path class="st0" d="M204.4,37l6.5,0c0,0,0.2-1.8-0.2-3.6c-0.4-1.8-1.5-3.5-3.9-3.4c0,0-0.9,0-1.6,0.9
				C204.5,31.8,203.9,33.6,204.4,37z"/>
			<path class="st0" d="M206.4,58.8c2.8-0.2,4.2-2.2,4.9-4.2c0.4-1,0.6-1.9,0.6-2.7c0.1-0.7,0.1-1.2,0.1-1.2c0.3-2,0-5.1-0.4-7.7
				c-0.2-1.3-0.4-2.5-0.6-3.4c-0.2-0.9-0.3-1.4-0.3-1.4l-6.5-0.1c0,0-0.7,3.7-1.6,6.1c0,0-0.4,1-0.8,2.4c-0.4,1.4-0.8,3.4-0.9,5.2
				C200.9,55.5,202.7,58.6,206.4,58.8z"/>
		</g>
	</g>
	<g>
		<g>
			<path class="st0" d="M193.7,65l-5.7-3c0,0,0.2-0.4,0.5-1c0.3-0.6,0.7-1.3,1.3-2c1.1-1.3,2.8-2.4,5-1.2c0,0,0.8,0.4,1,1.5
				C195.9,60.5,195.7,62.3,193.7,65z"/>
			<path class="st0" d="M180.5,81.6c-2.1-1.8-2.2-4.1-1.7-5.9c0.2-0.9,0.6-1.7,0.9-2.3c0.3-0.6,0.5-0.9,0.5-0.9
				c0.7-1.6,2.6-3.9,4.2-5.8c1.6-1.9,3-3.5,3-3.5l5.7,3c0,0-1.1,3.5-1.6,6c0,0-0.2,1-0.6,2.4c-0.4,1.4-1.1,3.2-2.1,4.7
				c-1,1.5-2.3,2.6-3.7,3.1C183.6,82.8,182,82.6,180.5,81.6z"/>
		</g>
		<g>
			<path class="st0" d="M186.6,93.9l6.4,1.4c0,0,0.2-0.4,0.3-1.1c0.1-0.7,0.3-1.6,0.3-2.5c0-1.8-0.7-3.7-3.1-4.1
				c0,0-0.8-0.2-1.7,0.6c-0.4,0.4-0.9,0.9-1.3,1.8c-0.2,0.5-0.4,1-0.5,1.6C186.8,92.3,186.7,93,186.6,93.9z"/>
			<path class="st0" d="M183.6,115.7c2.7,0.4,4.6-1.2,5.8-2.9c0.6-0.9,1-1.8,1.3-2.5c0.2-0.7,0.4-1.2,0.4-1.2c0.7-1.9,1.2-5,1.4-7.7
				c0.2-2.7,0.2-4.9,0.2-4.9l-6.3-1.5c0,0-0.4,0.9-0.9,2c-0.5,1.1-1.3,2.5-2,3.6c0,0-0.6,0.9-1.3,2.2c-0.7,1.3-1.5,3.1-2,4.9
				C179,111.1,180,114.6,183.6,115.7z"/>
		</g>
	</g>
	<g>
		<g>
			<path class="st0" d="M169.7,118.7l-4.8-4.4c0,0,1-1.4,2.4-2.4c1.4-1,3.3-1.6,5.1,0.1c0,0,0.6,0.6,0.6,1.7
				C173,114.8,172.3,116.5,169.7,118.7z"/>
			<path class="st0" d="M152.7,130.9c-0.8-1.1-1-2.3-0.9-3.3c0.1-1,0.5-1.9,0.9-2.8c0.9-1.6,2.2-2.7,2.2-2.7
				c0.6-0.7,1.5-1.4,2.5-2.2c1-0.8,2-1.6,3.1-2.3c2-1.4,3.8-2.5,3.8-2.5l4.8,4.3c0,0-2,3-3.1,5.4c0,0-0.1,0.2-0.3,0.6
				c-0.2,0.4-0.5,0.9-1,1.5c-0.8,1.2-2,2.8-3.3,4c-1.3,1.2-2.9,1.9-4.4,1.9C155.3,133,153.9,132.3,152.7,130.9z"/>
		</g>
		<g>
			<path class="st0" d="M155,144.4l5.6,3.2c0,0,1.1-1.5,1.7-3.2c0.5-1.8,0.4-3.8-1.8-4.9c0,0-0.8-0.4-1.8,0.1
				c-0.5,0.2-1.1,0.7-1.7,1.4C156.4,141.7,155.7,142.8,155,144.4z"/>
			<path class="st0" d="M145.2,164.3c2.4,1.3,4.8,0.3,6.5-1c0.9-0.7,1.6-1.4,2-1.9c0.5-0.6,0.7-1,0.7-1c1.3-1.6,2.7-4.5,3.8-7
				c1-2.5,1.7-4.7,1.7-4.7l-5.6-3.3c0,0-0.6,0.7-1.5,1.6c-0.8,0.9-2,2-3,2.8c0,0-0.8,0.7-1.9,1.7c-0.5,0.5-1.1,1.1-1.7,1.8
				c-0.6,0.7-1.2,1.4-1.7,2.1C142.4,158.5,142.2,162.1,145.2,164.3z"/>
		</g>
	</g>
	<g>
		<g>
			<path class="st0" d="M131.1,162.5l-3-5.8c0,0,1.4-1,3-1.4c1.7-0.4,3.6-0.4,4.8,1.8c0,0,0.4,0.7,0,1.8
				C135.5,159.9,134.3,161.3,131.1,162.5z"/>
			<path class="st0" d="M110.6,168.8c-0.8-2.6,0.6-4.7,2.1-6c1.5-1.4,3.3-2.1,3.3-2.1c0.4-0.2,0.9-0.5,1.5-0.7
				c0.6-0.2,1.1-0.4,1.7-0.6c1.2-0.4,2.4-0.7,3.6-1c1.2-0.3,2.3-0.5,3.1-0.7c0.8-0.2,1.3-0.3,1.3-0.3c1,1.9,2,3.8,3,5.7
				c0,0-3,2.1-4.8,3.9c0,0-0.7,0.7-1.9,1.6c-1.2,0.9-2.8,2-4.5,2.7C115.6,172.8,112.1,172.2,110.6,168.8z"/>
		</g>
		<g>
			<path class="st0" d="M109.5,182.7l4.8,4.3c0,0,1.3-1.1,2.1-2.7c0.8-1.6,1.3-3.5-0.6-5.1c0,0-0.6-0.6-1.8-0.4
				C113,178.9,111.4,179.8,109.5,182.7z"/>
			<path class="st0" d="M98.1,200.7c2.3,1.4,4.6,0.7,6.2-0.3c1.6-1,2.7-2.5,2.7-2.5c1.3-1.3,2.8-3.9,4.2-6c1.3-2.2,2.3-4,2.3-4
				l-4.8-4.3c0,0-2.9,2.3-5.1,3.5c0,0-3.6,2.2-5.8,5c-1.1,1.4-1.8,3-1.7,4.5C96,198.1,96.7,199.5,98.1,200.7z"/>
		</g>
	</g>
	<g>
		<g>
			<path class="st0" d="M84.3,199l-3.3-5.6c0,0,5.7-4.4,8.1,0c0,0,0.4,0.7,0,1.8C88.6,196.3,87.5,197.6,84.3,199z"/>
			<path class="st0" d="M64.5,208.3c-1.2-2.5-0.2-4.7,1.1-6.4c1.3-1.6,2.9-2.6,2.9-2.6c1.5-1.2,4.4-2.6,6.9-3.6
				c2.4-1.1,4.5-1.7,4.5-1.7l3.4,5.5c0,0-0.2,0.2-0.5,0.4c-0.3,0.3-0.7,0.6-1.1,1.1c-0.9,0.9-2,2-2.8,3c0,0-0.7,0.8-1.7,1.9
				c-1,1.1-2.5,2.3-4,3.4C70.1,211.4,66.5,211.4,64.5,208.3z"/>
		</g>
		<g>
			<path class="st0" d="M65.7,222.2l5.5,3.4c0,0,1.1-1.3,1.6-3c0.6-1.6,0.7-3.6-1.4-4.9c0,0-0.7-0.5-1.8-0.1
				C68.5,217.8,67.1,219,65.7,222.2z"/>
			<path class="st0" d="M58,241.9c2.6,0.9,4.6-0.2,5.9-1.5c1.4-1.3,2.2-2.9,2.2-2.9c1-1.5,2.1-4.3,2.9-6.6c0.9-2.3,1.5-4.3,1.5-4.3
				l-5.5-3.4c0,0-0.6,0.7-1.5,1.6c-0.4,0.4-0.9,0.9-1.4,1.4c-0.5,0.5-1,1-1.5,1.4c0,0-3.2,2.8-4.9,6C54.2,236.8,54.7,240.2,58,241.9
				z"/>
		</g>
	</g>
	<g>
		<g>
			<path class="st0" d="M44.1,242.9l-4.4-4.8c0,0,1.2-1.4,2.7-2.3c1.6-0.9,3.6-1.3,5.2,0.7c0,0,0.5,0.7,0.4,1.8
				C47.7,239.4,46.9,241,44.1,242.9z"/>
			<path class="st0" d="M26.6,256.4c-1.7-2.2-1.2-4.6-0.3-6.5c0.5-0.9,1-1.8,1.5-2.3c0.5-0.6,0.8-0.9,0.8-0.9c1.3-1.5,3.8-3.5,6-5
				c2.3-1.5,4.2-2.6,4.2-2.6l4.4,4.7c0,0-2.3,3-3.4,5.3c0,0-0.5,1-1.3,2.2c-0.8,1.3-2,2.8-3.2,4.2C32.8,258.1,29.3,258.9,26.6,256.4
				z"/>
		</g>
		<g>
			<path class="st0" d="M31,269.6l6.2,2.1c0,0,3-6.1-1.6-7.7c0,0-0.8-0.3-1.8,0.3C32.8,264.8,31.6,266.2,31,269.6z"/>
			<path class="st0" d="M28.4,290.5c2.8,0.2,4.4-1.3,5.3-2.9c1-1.6,1.3-3.3,1.3-3.3c0.3-0.8,0.5-2,0.7-3.2c0.2-1.2,0.4-2.6,0.5-3.8
				c0.1-1.2,0.2-2.4,0.3-3.2c0.1-0.8,0.1-1.3,0.1-1.3l-6.1-2.1c0,0-1.7,3.3-3.2,5.3c0,0-0.6,0.8-1.3,2.2c-0.7,1.3-1.5,3.1-1.9,4.8
				C23.4,286.5,24.7,289.7,28.4,290.5z"/>
		</g>
	</g>
	<g>
		<g>
			<path class="st0" d="M15.2,295.1l-5.5-3.5c0,0,0.8-1.7,2.1-3c1.3-1.3,3.1-2.2,5.1-0.8c0,0,0.7,0.5,0.8,1.6
				C17.9,290.7,17.5,292.5,15.2,295.1z"/>
			<path class="st0" d="M2.3,313.2c-2.3-1.5-2.6-4.1-2.2-6.2c0.4-2.1,1.3-3.8,1.3-3.8c0.8-1.9,2.6-4.5,4.4-6.6
				c1.7-2.1,3.3-3.7,3.3-3.7l5.6,3.4c0,0-0.3,0.9-0.7,2.1c-0.2,0.6-0.4,1.3-0.6,2c-0.2,0.7-0.3,1.4-0.4,2c0,0-0.8,4.2-2.5,7.4
				C8.7,312.9,5.7,314.8,2.3,313.2z"/>
		</g>
		<g>
			<path class="st0" d="M10.6,324.4c2.2,0,4.3,0,6.5,0c0,0,0.2-1.7-0.2-3.3c-0.4-1.7-1.3-3.4-3.8-3.4c0,0-0.8,0-1.6,0.8
				C10.8,319.3,10.1,321,10.6,324.4z"/>
			<path class="st0" d="M15.6,344.1c2.6-0.7,3.5-2.5,3.8-4.2c0.1-0.8,0.2-1.7,0.1-2.3c0-0.6-0.1-1-0.1-1c0-1.7-0.7-4.4-1.3-6.7
				c-0.6-2.3-1.1-4.3-1.1-4.3c-2.2,0-4.3,0-6.5,0c0,0-0.1,0.9-0.4,2.1c-0.2,1.2-0.5,2.7-0.9,3.9c0,0-0.3,1-0.5,2.5
				c-0.2,1.5-0.3,3.4,0,5.1c0.3,1.8,1.1,3.3,2.3,4.1c0.6,0.4,1.3,0.7,2,0.8c0.4,0.1,0.8,0.1,1.2,0C14.7,344.2,15.2,344.2,15.6,344.1
				z"/>
		</g>
	</g>
</g>
</svg>
