<?xml version="1.0" encoding="utf-8"?>
<!-- Generator: Adobe Illustrator 21.1.0, SVG Export Plug-In . SVG Version: 6.00 Build 0)  -->
<svg version="1.1" id="レイヤー_1" xmlns="http://www.w3.org/2000/svg" xmlns:xlink="http://www.w3.org/1999/xlink" x="0px"
	 y="0px" width="85px" height="114px" viewBox="0 0 85 114" style="enable-background:new 0 0 85 114;" xml:space="preserve">
<style type="text/css">
	.st0{fill:#FFFFFF;}
</style>
<path class="st0" d="M43,1c6.1,0,11,4.9,11,11v20c0,6.1-4.9,11-11,11h-1c-6.1,0-11-4.9-11-11V12c0-6.1,4.9-11,11-11H43 M43,0h-1
	c-6.6,0-12,5.4-12,12v20c0,6.6,5.4,12,12,12h1c6.6,0,12-5.4,12-12V12C55,5.4,49.6,0,43,0L43,0z"/>
<rect x="42" y="1" class="st0" width="1" height="13"/>
<path class="st0" d="M43,17h-1c-0.6,0-1-0.4-1-1v-4c0-0.6,0.4-1,1-1h1c0.6,0,1,0.4,1,1v4C44,16.6,43.6,17,43,17z"/>
<rect x="42" y="44" class="st0" width="1" height="70"/>
<g>
	<path class="st0" d="M0,66.2l0.4-0.6c0.6,0.5,1.3,0.9,2.4,0.9c1.1,0,1.7-0.6,1.7-1.4c0-0.9-0.9-1.3-1.8-1.6
		c-1.1-0.4-2.3-0.9-2.3-2.1c0-1.1,0.9-2,2.5-2c0.8,0,1.6,0.4,2.2,0.8l-0.4,0.6C4,60.3,3.5,60,2.8,60c-1.1,0-1.6,0.6-1.6,1.3
		c0,0.8,0.9,1.1,1.7,1.5c1.1,0.4,2.4,0.8,2.4,2.3c0,1.1-0.9,2.1-2.6,2.1C1.7,67.2,0.7,66.7,0,66.2z"/>
	<path class="st0" d="M6.6,63.3c0-2.5,1.6-3.9,3.5-3.9c1,0,1.7,0.4,2.2,0.9l-0.5,0.6c-0.5-0.4-1-0.8-1.7-0.8c-1.5,0-2.6,1.3-2.6,3.2
		c0,1.9,1,3.2,2.6,3.2c0.8,0,1.4-0.4,1.9-0.8l0.4,0.6c-0.6,0.6-1.4,1-2.4,1C8.1,67.2,6.6,65.8,6.6,63.3z"/>
	<path class="st0" d="M14.2,59.5h0.7l0.1,1.4h0c0.5-0.9,1.2-1.6,2.1-1.6c0.3,0,0.5,0,0.8,0.2l-0.2,0.7c-0.3-0.1-0.4-0.1-0.7-0.1
		c-0.7,0-1.5,0.5-2,1.9v5h-0.8V59.5z"/>
	<path class="st0" d="M18.6,63.3c0-2.5,1.6-3.9,3.4-3.9c1.8,0,3.4,1.4,3.4,3.9c0,2.5-1.6,3.9-3.4,3.9C20.2,67.2,18.6,65.8,18.6,63.3
		z M24.5,63.3c0-1.9-1.1-3.2-2.5-3.2c-1.5,0-2.5,1.3-2.5,3.2c0,1.9,1.1,3.2,2.5,3.2C23.5,66.5,24.5,65.2,24.5,63.3z"/>
	<path class="st0" d="M27.6,65.9v-10h0.8V66c0,0.4,0.1,0.5,0.3,0.5c0.1,0,0.1,0,0.3,0l0.1,0.6c-0.1,0-0.3,0.1-0.5,0.1
		C27.9,67.2,27.6,66.8,27.6,65.9z"/>
	<path class="st0" d="M31.3,65.9v-10h0.8V66c0,0.4,0.1,0.5,0.3,0.5c0.1,0,0.1,0,0.3,0l0.1,0.6c-0.1,0-0.3,0.1-0.5,0.1
		C31.6,67.2,31.3,66.8,31.3,65.9z"/>
</g>
<g>
	<path class="st0" d="M48.7,63.3c0-2.4,1.5-3.9,3.3-3.9c0.9,0,1.5,0.3,2.2,0.9l-0.1-1.3v-3H55V67h-0.7l-0.1-0.9h0
		c-0.6,0.6-1.4,1.1-2.4,1.1C50,67.2,48.7,65.8,48.7,63.3z M54.2,65.3V61c-0.8-0.7-1.4-0.9-2.1-0.9c-1.4,0-2.5,1.4-2.5,3.2
		c0,1.9,0.9,3.2,2.4,3.2C52.8,66.5,53.5,66.1,54.2,65.3z"/>
	<path class="st0" d="M58,63.3c0-2.5,1.6-3.9,3.4-3.9c1.8,0,3.4,1.4,3.4,3.9c0,2.5-1.6,3.9-3.4,3.9C59.6,67.2,58,65.8,58,63.3z
		 M64,63.3c0-1.9-1.1-3.2-2.5-3.2c-1.5,0-2.5,1.3-2.5,3.2c0,1.9,1.1,3.2,2.5,3.2C62.9,66.5,64,65.2,64,63.3z"/>
	<path class="st0" d="M66.8,59.5h0.9l1.3,4.7c0.2,0.7,0.3,1.4,0.5,2h0.1c0.2-0.7,0.4-1.3,0.5-2l1.3-4.7h0.9l1.3,4.7
		c0.2,0.7,0.4,1.4,0.5,2h0.1c0.2-0.7,0.3-1.3,0.5-2l1.3-4.7h0.8L74.7,67h-1.1l-1.3-4.5c-0.2-0.7-0.4-1.4-0.6-2.1h-0.1
		c-0.2,0.7-0.3,1.4-0.6,2.2L69.9,67h-1L66.8,59.5z"/>
	<path class="st0" d="M79.4,59.5h0.7l0.1,1.1h0c0.8-0.7,1.5-1.3,2.5-1.3c1.6,0,2.3,1,2.3,2.9V67h-0.8v-4.7c0-1.6-0.5-2.3-1.6-2.3
		c-0.9,0-1.5,0.4-2.4,1.3V67h-0.8V59.5z"/>
</g>
</svg>
